PathFileType	4	(X/Y/Z)	1_2_46_p1_0-200.trc
DataRate	CameraRate	NumFrames	NumMarkers	Units	OrigDataRate	OrigDataStartFrame	OrigNumFrames
59.0	59.0	6	27	m	59.0	125	201
Frame#	Time	RHip			RKnee			RAnkle			RBigToe			RSmallToe			RHeel			LHip			LKnee			LAnkle			LBigToe			LSmallToe			LHeel			Neck			Head			Nose			RShoulder			RElbow			RWrist			RThumb			RIndex			RPinky			LShoulder			LElbow			LWrist			LThumb			LIndex			LPinky			
		X1	Y1	Z1	X2	Y2	Z2	X3	Y3	Z3	X4	Y4	Z4	X5	Y5	Z5	X6	Y6	Z6	X7	Y7	Z7	X8	Y8	Z8	X9	Y9	Z9	X10	Y10	Z10	X11	Y11	Z11	X12	Y12	Z12	X13	Y13	Z13	X14	Y14	Z14	X15	Y15	Z15	X16	Y16	Z16	X17	Y17	Z17	X18	Y18	Z18	X19	Y19	Z19	X20	Y20	Z20	X21	Y21	Z21	X22	Y22	Z22	X23	Y23	Z23	X24	Y24	Z24	X25	Y25	Z25	X26	Y26	Z26	X27	Y27	Z27	
125	2.1186440677966103	0.38145169048102323	0.20954673998835743	1.1191302786826591	0.37446168375004657	0.33355616571077396	1.5339116085427102	0.37549945585896494	0.41586766767377586	1.9560945244561572	0.3438150963767826	0.21480675382242256	1.9831385067796485	0.40028429957877787	0.2655144753160422	2.000833940727973	0.34536613185470777	0.4811659215446069	1.9975208575788752	0.1659152200065003	0.21728619566993104	1.1233934080833985	0.17427238840515663	0.3033639461728671	1.5152502852455982	0.19827462879667043	0.4314167451843819	1.9526104989473678	0.1607606500497089	0.2378298660681933	2.0063944744009814	0.1249982867433326	0.2464647548108694	1.9870294204124415	0.2147746304261261	0.469930125261524	1.997029838336583	0.2640566452686864	0.15142921586810543	0.47571796876805195	0.26775582618188487	0.06926100783690092	0.23580833311210161	0.25653723187296196	0.021436883431858175	0.3786216064222207	0.4531429374976971	0.15678384935194775	0.5637474655652304	0.4824541296706235	0.21034032563712815	0.8691294367264225	0.4900253571245956	0.19832191162210108	1.1469311083862692	0.426202981597849	0.18223390618542132	1.2767044860620513	0.4482749567213165	0.1781746582094831	1.2976312399084287	0.49329596511283663	0.23410182576682556	1.3195965384966444	0.09992157829557234	0.20507941435755328	0.5639907343117735	0.04051076745905463	0.20710668519679926	0.8456968805932294	0.04498304036203663	0.1945201220702563	1.1208070528614138	0.07008139443531243	0.15365466031954347	1.2163825032570323	0.05660204671748617	0.16490489414392737	1.2444403480944646	0.026029065374498644	0.2448481614470766	1.2645957313101377
126	2.135593220338983	0.3812223585059368	0.21107844783805987	1.1160367979606005	0.3743980338564106	0.3335055028410688	1.5334536892624502	0.37546922668610705	0.41584717118637243	1.9560826292927673	0.34383859603543726	0.21506949137467002	1.9831769073352397	0.40041292626760383	0.26614048698194714	2.001059412689559	0.34484539509184603	0.479150926535251	2.001770966419874	0.16211009448511243	0.21546988242124326	1.1230586312749395	0.17439923730036241	0.30471659015137037	1.5119740759432514	0.19814917118073933	0.43129895827805	1.9523361729540094	0.16080290819475657	0.23766590781418948	2.0063684121644436	0.12506312859612914	0.24617643579937126	1.9868977632139018	0.21368422517572613	0.4674754670973193	1.9910688675789343	0.2642947489860184	0.15310504989248433	0.4793687284707149	0.26779020611052795	0.06926094111841383	0.2357786800335272	0.2566291304416394	0.021502380142565593	0.3786742173428687	0.4531538018686964	0.15686985356544464	0.5636832387341714	0.4827150710984492	0.21371938847979455	0.8695811774385321	0.4899563832445364	0.19825764546486754	1.1468979005237787	0.42603584004752754	0.18274376471569978	1.276757980625405	0.4480840028868117	0.17889623707551525	1.2979344824038006	0.49282640235078656	0.20842392003217622	1.3116606300836444	0.09990398597946415	0.20519051071969105	0.5639812492858832	0.04054146517416271	0.20706288412373586	0.8456734039525606	0.050582445408358885	0.18335635358174665	1.1213259111695861	0.07014208279005216	0.15339494450590196	1.216227617996809	0.05458908303059722	0.1537093293024962	1.2412655797612666	0.02612415339439659	0.2441331058518383	1.2647196293648182
127	2.152542372881356	0.3812449532549797	0.21087211733678354	1.1160006807963803	0.3743577205573541	0.3334789962862982	1.5337497487890088	0.37546206268535626	0.415879232564207	1.9561287398892309	0.3441819810872127	0.2159134633727993	1.9836229246143495	0.4007025535237258	0.2669441213094027	2.0014367592632	0.3452176507098622	0.4807433998825666	1.9972983044398986	0.1622424412372297	0.2150519078587234	1.1228322675583264	0.17452006294125127	0.3052282809273773	1.5122587026741348	0.1983007579151475	0.4314541168333762	1.95275098758857	0.1607039685256834	0.237808924392454	2.00640201559019	0.12503132286065233	0.24643226489632433	1.9870267812885516	0.2147563903906946	0.46997875633283176	1.9971060913244358	0.26433921149754996	0.15327069478266794	0.4793801845894794	0.26782538201219247	0.06935510485517615	0.235774638112765	0.260570218330261	0.023234727521533688	0.37853956461036187	0.45315819194686885	0.15684179094184736	0.563655231480223	0.4851563735064302	0.19825648801415388	0.862870178750865	0.49277370374659757	0.18601231339917637	1.139419876673715	0.4258868685001347	0.18252444243955523	1.2766568714394406	0.44405411979161136	0.17730600557076742	1.2975401334187617	0.48511075690533184	0.22126314450623233	1.3168872989197444	0.09993383948905164	0.20536875909978883	0.5639737527820561	0.04060167930242983	0.2070029487720209	0.8456483498300021	0.05056324033149007	0.18334054790137239	1.1213266408551463	0.07014482369679047	0.1531071724957854	1.2161590832341282	0.054746886764374385	0.152894680591727	1.2406291691790703	0.02617000303152032	0.2438114990915583	1.2646078897672441
128	2.169491525423729	0.38159291532527817	0.20944268982527547	1.1196446443234809	0.3744077968633529	0.3333079174587469	1.533438268735604	0.37550033906229624	0.4158974382094796	1.9561065691649098	0.34356524800065474	0.21462660710231835	1.9829827838731824	0.40005152823655526	0.26541131072705465	2.0007763027497285	0.34533053919524537	0.4809754903225966	1.9975026206646904	0.1627148541259936	0.21375732315914184	1.1261346498953257	0.1746535004948219	0.3049627358960591	1.512216196929675	0.19826499912463857	0.43144244811008725	1.952604184369345	0.1607787896033128	0.23778878435233894	2.006360050474963	0.1251220351981821	0.24632209715221148	1.987004127196293	0.21476964525825928	0.47003311757498234	1.997210406191557	0.26435215332598044	0.15330632892217197	0.4793577755513939	0.2678364163853597	0.06930504201344168	0.23577453363332057	0.26057022772974175	0.02321637390765855	0.37853654246072543	0.4531778376873154	0.15690976087222186	0.5636100324277731	0.48206241992276583	0.21193898180324067	0.8657086138913221	0.4921586583980654	0.18269351398032824	1.138594673789945	0.4208873207279279	0.17939026272344352	1.2717264178253205	0.43997226811617357	0.16499781882347164	1.2974801946419414	0.48811637940048047	0.2068522852284232	1.3120981897604873	0.09994716605414442	0.20535274933595132	0.5639777168364918	0.04442077078855089	0.20857821428069473	0.8492746440037011	0.05120734294252131	0.184805264306967	1.12576687363404	0.07060085840041977	0.154313982335916	1.2204423169724514	0.05234566495235749	0.14133954965389042	1.2374939011468167	0.024284659653782376	0.23391861152621304	1.2660106748810456
129	2.1864406779661016	0.38126720400562575	0.21087598708242422	1.1160131351783378	0.37842893214723483	0.33711652712195206	1.5297069834273003	0.37544694644987364	0.4160789423312011	1.9561673653137175	0.3432086846998125	0.2163090860970281	1.9810834411466134	0.3998425790191184	0.2661940527998305	2.001031057561027	0.3450139301376468	0.47930945499067884	2.0019726793107973	0.16618133421304918	0.21686238855609552	1.1230195608572608	0.17462194272820328	0.30387624721426787	1.5155034904944806	0.19820497273618096	0.4314942632696129	1.9525726758647723	0.1613096751874043	0.2358704807559216	2.0095837622671824	0.1251493874833046	0.24653203230775136	1.9872045722753084	0.21471952422309437	0.47013712195912744	1.9972442980941105	0.2643867719756609	0.1534182245360654	0.4793535026306659	0.2678671133080124	0.06926359449508009	0.23568385961225466	0.26057261577310115	0.02313533180960295	0.37855405602506637	0.45315983793404807	0.1569133200280295	0.563642520306258	0.4819999298701563	0.2120852610803058	0.8657509017004607	0.49194472315258786	0.18409408548689	1.135293120849508	0.420806556310777	0.1791021616881196	1.2716273816709522	0.4362108383409496	0.16353175430831055	1.2971921835479192	0.48496138985627385	0.22174423018300884	1.317000670580461	0.09990958823719936	0.20550101936182885	0.5640254965209133	0.04729125431275984	0.21965223734468106	0.8507478144979529	0.05121485395403672	0.18487483071060506	1.1258098291466554	0.06611349529201142	0.14828517651628503	1.2152964065556906	0.04994290546792407	0.1294921264373807	1.2335501300384009	0.024043195757658554	0.23209669606504924	1.2620223384944596
130	2.2033898305084745	0.38172136080278174	0.20934034844984667	1.1196245357496333	0.37890518432098996	0.3347137115806522	1.5332898166956608	0.37550919511105474	0.41601220334346156	1.956161142514791	0.3437331782557242	0.21659534577077313	1.9811618335027488	0.4003276038183731	0.2663637086735631	2.001115201583815	0.3453243762491305	0.48100567572745795	1.997500448468826	0.1662557472939516	0.21683411071859182	1.1229984726467364	0.1745392464970055	0.3054322633142714	1.5119844949850727	0.19348341581818526	0.42759915781740815	1.951094105112492	0.16126237927506318	0.23520776803704074	2.009553588834982	0.12072025335757718	0.24304022780003173	1.985581501764627	0.2157275735584395	0.4725146571331325	2.002978840638908	0.26742732007439296	0.16405291371644107	0.4792724916075084	0.2678213052319553	0.06781159428416124	0.23262609786397678	0.26054898213472294	0.02314450342018377	0.37852287541376756	0.4527668356100995	0.15529117235326353	0.5599743939560904	0.48199447760814446	0.21212285254825491	0.8658298970869923	0.4919114388398897	0.18405043095114815	1.1352603682903066	0.4207727858617902	0.17907131501962822	1.2715987231296324	0.4361339469145592	0.16347784871770035	1.2971408441517334	0.4849250625091798	0.22175270315662665	1.316780949929796	0.099905923394806	0.20554857423171397	0.5640195343792668	0.047773320172558434	0.22123272498106095	0.8547258798506854	0.051179100299280356	0.18476238085917762	1.1256716036109227	0.06549122091849928	0.14694215941102878	1.21122161178905	0.04985924419874687	0.12972027294933516	1.2333016734233824	0.028582149537551605	0.22068033094859502	1.2543270274398177
